{
  "title" : "",
  "description" : "",
  "author" : "",
  "targetLoudness" : -18.0,
  "shouldApplyLoudnessNormalization" : true,
  "videoFormatFrameRate" : 30,
  "audioFormatSampleRate" : 44100,
  "allowSubFrameEditing" : false,
  "width" : 1280.0,
  "height" : 720.0,
  "version" : "6.0",
  "editRate" : 705600000,
  "authoringClientName" :  {
    "name" : "Camtasia",
    "platform" : "Mac",
    "version" : "2022.6.1"
  },
  "sourceBin" : [
    {
      "id" : 1,
      "src" : "./recordings/1676162640.930332/Rec 2-11-2023 7.trec",
      "rect" : [0, 0, 1600, 900],
      "lastMod" : "20230212T004358",
      "loudnessNormalization" : true,
      "sourceTracks" : [
        {
          "range" : [0, 5590851],
          "type" : 0,
          "editRate" : 44100,
          "trackRect" : [0, 0, 1600, 900],
          "sampleRate" : "149989/5000",
          "bitDepth" : 24,
          "numChannels" : 0,
          "integratedLUFS" : 100.0,
          "peakLevel" : -1.0,
          "metaData" : "Rec 2-11-2023 7.trec;2b7b6a05-7a1f-11e2-83d0-0017f200be7f;2b7b6a06-7a1f-11e2-83d0-0017f200be7f;2b7b6a07-7a1f-11e2-83d0-0017f200be7f;2b7b6a08-7a1f-11e2-83d0-0017f200be7f;2b7b6a0a-7a1f-11e2-83d0-0017f200be7f;2b7b6af0-7a1f-11e2-83d0-0017f200be7f;2b7b6af1-7a1f-11e2-83d0-0017f200be7f;2b7b6af2-7a1f-11e2-83d0-0017f200be7f;2b7b6af3-7a1f-11e2-83d0-0017f200be7f;2b7b6af5-7a1f-11e2-83d0-0017f200be7f;2b7b6af6-7a1f-11e2-83d0-0017f200be7f;2b7b6af7-7a1f-11e2-83d0-0017f200be7f;2b7b6af8-7a1f-11e2-83d0-0017f200be7f;2b7b6af9-7a1f-11e2-83d0-0017f200be7f;2b7b6afa-7a1f-11e2-83d0-0017f200be7f;2b7b6afb-7a1f-11e2-83d0-0017f200be7f;2b7b6afc-7a1f-11e2-83d0-0017f200be7f;"
        },
        {
          "range" : [0, 5592631],
          "type" : 2,
          "editRate" : 44100,
          "trackRect" : [0, 0, 0, 0],
          "sampleRate" : 44100,
          "bitDepth" : 16,
          "numChannels" : 2,
          "integratedLUFS" : -33.131187014624,
          "peakLevel" : 0.172027587890625,
          "metaData" : ""
        }
      ],
      "metadata" : {
        "timeAdded" : "20230212T004358.743169"
      }
    }
  ],
  "timeline" : {
    "id" : 2,
    "sceneTrack" : {
      "scenes" : [
        {
          "csml" : {
            "tracks" : [
              {
                "trackIndex" : 0,
                "medias" : [
                  {
                    "id" : 3,
                    "_type" : "StitchedMedia",
                    "minMediaStart" : 0,
                    "attributes" : {
                      "ident" : "Rec 2-11-2023 7",
                      "gain" : 1.0,
                      "mixToMono" : false,
                      "loudnessNormalization" : true,
                      "sourceFileOffset" : 0
                    },
                    "parameters" : {
                      "scale0" : 0.8,
                      "scale1" : 0.8,
                      "sourceCrop0" : 0.0,
                      "sourceCrop1" : 0.0,
                      "sourceCrop2" : 0.0,
                      "sourceCrop3" : 0.0,
                      "geometryCrop0" : 0.0,
                      "geometryCrop1" : 0.0,
                      "geometryCrop2" : 0.0,
                      "geometryCrop3" : 0.0,
                      "cursorOpacity" : 1.0,
                      "cursorScale" : 2.25,
                      "smoothCursorAcrossEditDuration" : 235200000
                    },
                    "medias" : [
                        {
                          "id" : 4,
                          "_type" : "ScreenVMFile",
                          "src" : 1,
                          "trackNumber" : 0,
                          "attributes" : {
                            "ident" : "Rec 2-11-2023 7"
                          },
                          "parameters" : {
                            "sourceCrop0" : {
                              "type" : "double",
                              "defaultValue" : 0.0,
                              "interp" : "eioe"
                            },
                            "sourceCrop1" : {
                              "type" : "double",
                              "defaultValue" : 0.0,
                              "interp" : "eioe"
                            },
                            "sourceCrop2" : {
                              "type" : "double",
                              "defaultValue" : 0.0,
                              "interp" : "eioe"
                            },
                            "sourceCrop3" : {
                              "type" : "double",
                              "defaultValue" : 0.0,
                              "interp" : "eioe"
                            },
                            "geometryCrop0" : {
                              "type" : "double",
                              "defaultValue" : 0.0,
                              "interp" : "eioe"
                            },
                            "geometryCrop1" : {
                              "type" : "double",
                              "defaultValue" : 0.0,
                              "interp" : "eioe"
                            },
                            "geometryCrop2" : {
                              "type" : "double",
                              "defaultValue" : 0.0,
                              "interp" : "eioe"
                            },
                            "geometryCrop3" : {
                              "type" : "double",
                              "defaultValue" : 0.0,
                              "interp" : "eioe"
                            },
                            "cursorScale" : {
                              "type" : "double",
                              "defaultValue" : 0.0,
                              "interp" : "linr"
                            },
                            "cursorOpacity" : {
                              "type" : "double",
                              "defaultValue" : 0.0,
                              "interp" : "linr"
                            },
                            "smoothCursorAcrossEditDuration" : 235200000
                          },
                          "effects" : [

                          ],
                          "start" : 0,
                          "duration" : 30364320000,
                          "mediaStart" : 0,
                          "mediaDuration" : 30364320000,
                          "scalar" : 1,
                          "metadata" : {
                            "clipSpeedAttribute" : false,
                            "effectApplied" : "none"
                          },
                          "animationTracks" : {

                          }
                        },
                        {
                          "id" : 5,
                          "_type" : "ScreenVMFile",
                          "src" : 1,
                          "trackNumber" : 0,
                          "attributes" : {
                            "ident" : "Rec 2-11-2023 7"
                          },
                          "parameters" : {
                            "sourceCrop0" : {
                              "type" : "double",
                              "defaultValue" : 0.0,
                              "interp" : "eioe"
                            },
                            "sourceCrop1" : {
                              "type" : "double",
                              "defaultValue" : 0.0,
                              "interp" : "eioe"
                            },
                            "sourceCrop2" : {
                              "type" : "double",
                              "defaultValue" : 0.0,
                              "interp" : "eioe"
                            },
                            "sourceCrop3" : {
                              "type" : "double",
                              "defaultValue" : 0.0,
                              "interp" : "eioe"
                            },
                            "geometryCrop0" : {
                              "type" : "double",
                              "defaultValue" : 0.0,
                              "interp" : "eioe"
                            },
                            "geometryCrop1" : {
                              "type" : "double",
                              "defaultValue" : 0.0,
                              "interp" : "eioe"
                            },
                            "geometryCrop2" : {
                              "type" : "double",
                              "defaultValue" : 0.0,
                              "interp" : "eioe"
                            },
                            "geometryCrop3" : {
                              "type" : "double",
                              "defaultValue" : 0.0,
                              "interp" : "eioe"
                            },
                            "cursorScale" : {
                              "type" : "double",
                              "defaultValue" : 0.0,
                              "interp" : "linr"
                            },
                            "cursorOpacity" : {
                              "type" : "double",
                              "defaultValue" : 0.0,
                              "interp" : "linr"
                            },
                            "smoothCursorAcrossEditDuration" : 235200000
                          },
                          "effects" : [

                          ],
                          "start" : 30364320000,
                          "duration" : 329280000,
                          "mediaStart" : 31799040000,
                          "mediaDuration" : 329280000,
                          "scalar" : 1,
                          "metadata" : {
                            "clipSpeedAttribute" : false,
                            "effectApplied" : "none"
                          },
                          "animationTracks" : {

                          }
                        },
                        {
                          "id" : 6,
                          "_type" : "ScreenVMFile",
                          "src" : 1,
                          "trackNumber" : 0,
                          "attributes" : {
                            "ident" : "Rec 2-11-2023 7"
                          },
                          "parameters" : {
                            "sourceCrop0" : {
                              "type" : "double",
                              "defaultValue" : 0.0,
                              "interp" : "eioe"
                            },
                            "sourceCrop1" : {
                              "type" : "double",
                              "defaultValue" : 0.0,
                              "interp" : "eioe"
                            },
                            "sourceCrop2" : {
                              "type" : "double",
                              "defaultValue" : 0.0,
                              "interp" : "eioe"
                            },
                            "sourceCrop3" : {
                              "type" : "double",
                              "defaultValue" : 0.0,
                              "interp" : "eioe"
                            },
                            "geometryCrop0" : {
                              "type" : "double",
                              "defaultValue" : 0.0,
                              "interp" : "eioe"
                            },
                            "geometryCrop1" : {
                              "type" : "double",
                              "defaultValue" : 0.0,
                              "interp" : "eioe"
                            },
                            "geometryCrop2" : {
                              "type" : "double",
                              "defaultValue" : 0.0,
                              "interp" : "eioe"
                            },
                            "geometryCrop3" : {
                              "type" : "double",
                              "defaultValue" : 0.0,
                              "interp" : "eioe"
                            },
                            "cursorScale" : {
                              "type" : "double",
                              "defaultValue" : 0.0,
                              "interp" : "linr"
                            },
                            "cursorOpacity" : {
                              "type" : "double",
                              "defaultValue" : 0.0,
                              "interp" : "linr"
                            },
                            "smoothCursorAcrossEditDuration" : 235200000
                          },
                          "effects" : [

                          ],
                          "start" : 30693600000,
                          "duration" : 2845920000,
                          "mediaStart" : 33774720000,
                          "mediaDuration" : 2845920000,
                          "scalar" : 1,
                          "metadata" : {
                            "clipSpeedAttribute" : false,
                            "effectApplied" : "none"
                          },
                          "animationTracks" : {

                          }
                        },
                        {
                          "id" : 7,
                          "_type" : "ScreenVMFile",
                          "src" : 1,
                          "trackNumber" : 0,
                          "attributes" : {
                            "ident" : "Rec 2-11-2023 7"
                          },
                          "parameters" : {
                            "sourceCrop0" : {
                              "type" : "double",
                              "defaultValue" : 0.0,
                              "interp" : "eioe"
                            },
                            "sourceCrop1" : {
                              "type" : "double",
                              "defaultValue" : 0.0,
                              "interp" : "eioe"
                            },
                            "sourceCrop2" : {
                              "type" : "double",
                              "defaultValue" : 0.0,
                              "interp" : "eioe"
                            },
                            "sourceCrop3" : {
                              "type" : "double",
                              "defaultValue" : 0.0,
                              "interp" : "eioe"
                            },
                            "geometryCrop0" : {
                              "type" : "double",
                              "defaultValue" : 0.0,
                              "interp" : "eioe"
                            },
                            "geometryCrop1" : {
                              "type" : "double",
                              "defaultValue" : 0.0,
                              "interp" : "eioe"
                            },
                            "geometryCrop2" : {
                              "type" : "double",
                              "defaultValue" : 0.0,
                              "interp" : "eioe"
                            },
                            "geometryCrop3" : {
                              "type" : "double",
                              "defaultValue" : 0.0,
                              "interp" : "eioe"
                            },
                            "cursorScale" : {
                              "type" : "double",
                              "defaultValue" : 0.0,
                              "interp" : "linr"
                            },
                            "cursorOpacity" : {
                              "type" : "double",
                              "defaultValue" : 0.0,
                              "interp" : "linr"
                            },
                            "smoothCursorAcrossEditDuration" : 235200000
                          },
                          "effects" : [

                          ],
                          "start" : 33539520000,
                          "duration" : 52332000000,
                          "mediaStart" : 37114560000,
                          "mediaDuration" : 52332000000,
                          "scalar" : 1,
                          "metadata" : {
                            "clipSpeedAttribute" : false,
                            "effectApplied" : "none"
                          },
                          "animationTracks" : {

                          }
                        }
                    ],
                    "effects" : [

                    ],
                    "start" : 0,
                    "duration" : 20674080000,
                    "mediaStart" : 18486720000,
                    "mediaDuration" : 20674080000,
                    "scalar" : 1,
                    "metadata" : {
                      "clipSpeedAttribute" : false,
                      "effectApplied" : "none"
                    },
                    "animationTracks" : {

                    }
                  },
                  {
                    "id" : 8,
                    "_type" : "StitchedMedia",
                    "minMediaStart" : 0,
                    "attributes" : {
                      "ident" : "Rec 2-11-2023 7",
                      "gain" : 1.0,
                      "mixToMono" : false,
                      "loudnessNormalization" : true,
                      "sourceFileOffset" : 0
                    },
                    "parameters" : {
                      "scale0" : 0.8,
                      "scale1" : 0.8,
                      "sourceCrop0" : 0.0,
                      "sourceCrop1" : 0.0,
                      "sourceCrop2" : 0.0,
                      "sourceCrop3" : 0.0,
                      "geometryCrop0" : 0.0,
                      "geometryCrop1" : 0.0,
                      "geometryCrop2" : 0.0,
                      "geometryCrop3" : 0.0,
                      "cursorOpacity" : 1.0,
                      "cursorScale" : 2.25,
                      "smoothCursorAcrossEditDuration" : 235200000
                    },
                    "medias" : [
                        {
                          "id" : 9,
                          "_type" : "ScreenVMFile",
                          "src" : 1,
                          "trackNumber" : 0,
                          "attributes" : {
                            "ident" : "Rec 2-11-2023 7"
                          },
                          "parameters" : {
                            "sourceCrop0" : {
                              "type" : "double",
                              "defaultValue" : 0.0,
                              "interp" : "eioe"
                            },
                            "sourceCrop1" : {
                              "type" : "double",
                              "defaultValue" : 0.0,
                              "interp" : "eioe"
                            },
                            "sourceCrop2" : {
                              "type" : "double",
                              "defaultValue" : 0.0,
                              "interp" : "eioe"
                            },
                            "sourceCrop3" : {
                              "type" : "double",
                              "defaultValue" : 0.0,
                              "interp" : "eioe"
                            },
                            "geometryCrop0" : {
                              "type" : "double",
                              "defaultValue" : 0.0,
                              "interp" : "eioe"
                            },
                            "geometryCrop1" : {
                              "type" : "double",
                              "defaultValue" : 0.0,
                              "interp" : "eioe"
                            },
                            "geometryCrop2" : {
                              "type" : "double",
                              "defaultValue" : 0.0,
                              "interp" : "eioe"
                            },
                            "geometryCrop3" : {
                              "type" : "double",
                              "defaultValue" : 0.0,
                              "interp" : "eioe"
                            },
                            "cursorScale" : {
                              "type" : "double",
                              "defaultValue" : 0.0,
                              "interp" : "linr"
                            },
                            "cursorOpacity" : {
                              "type" : "double",
                              "defaultValue" : 0.0,
                              "interp" : "linr"
                            },
                            "smoothCursorAcrossEditDuration" : 235200000
                          },
                          "effects" : [

                          ],
                          "start" : 0,
                          "duration" : 30364320000,
                          "mediaStart" : 0,
                          "mediaDuration" : 30364320000,
                          "scalar" : 1,
                          "metadata" : {
                            "clipSpeedAttribute" : false,
                            "effectApplied" : "none"
                          },
                          "animationTracks" : {

                          }
                        },
                        {
                          "id" : 10,
                          "_type" : "ScreenVMFile",
                          "src" : 1,
                          "trackNumber" : 0,
                          "attributes" : {
                            "ident" : "Rec 2-11-2023 7"
                          },
                          "parameters" : {
                            "sourceCrop0" : {
                              "type" : "double",
                              "defaultValue" : 0.0,
                              "interp" : "eioe"
                            },
                            "sourceCrop1" : {
                              "type" : "double",
                              "defaultValue" : 0.0,
                              "interp" : "eioe"
                            },
                            "sourceCrop2" : {
                              "type" : "double",
                              "defaultValue" : 0.0,
                              "interp" : "eioe"
                            },
                            "sourceCrop3" : {
                              "type" : "double",
                              "defaultValue" : 0.0,
                              "interp" : "eioe"
                            },
                            "geometryCrop0" : {
                              "type" : "double",
                              "defaultValue" : 0.0,
                              "interp" : "eioe"
                            },
                            "geometryCrop1" : {
                              "type" : "double",
                              "defaultValue" : 0.0,
                              "interp" : "eioe"
                            },
                            "geometryCrop2" : {
                              "type" : "double",
                              "defaultValue" : 0.0,
                              "interp" : "eioe"
                            },
                            "geometryCrop3" : {
                              "type" : "double",
                              "defaultValue" : 0.0,
                              "interp" : "eioe"
                            },
                            "cursorScale" : {
                              "type" : "double",
                              "defaultValue" : 0.0,
                              "interp" : "linr"
                            },
                            "cursorOpacity" : {
                              "type" : "double",
                              "defaultValue" : 0.0,
                              "interp" : "linr"
                            },
                            "smoothCursorAcrossEditDuration" : 235200000
                          },
                          "effects" : [

                          ],
                          "start" : 30364320000,
                          "duration" : 329280000,
                          "mediaStart" : 31799040000,
                          "mediaDuration" : 329280000,
                          "scalar" : 1,
                          "metadata" : {
                            "clipSpeedAttribute" : false,
                            "effectApplied" : "none"
                          },
                          "animationTracks" : {

                          }
                        },
                        {
                          "id" : 11,
                          "_type" : "ScreenVMFile",
                          "src" : 1,
                          "trackNumber" : 0,
                          "attributes" : {
                            "ident" : "Rec 2-11-2023 7"
                          },
                          "parameters" : {
                            "sourceCrop0" : {
                              "type" : "double",
                              "defaultValue" : 0.0,
                              "interp" : "eioe"
                            },
                            "sourceCrop1" : {
                              "type" : "double",
                              "defaultValue" : 0.0,
                              "interp" : "eioe"
                            },
                            "sourceCrop2" : {
                              "type" : "double",
                              "defaultValue" : 0.0,
                              "interp" : "eioe"
                            },
                            "sourceCrop3" : {
                              "type" : "double",
                              "defaultValue" : 0.0,
                              "interp" : "eioe"
                            },
                            "geometryCrop0" : {
                              "type" : "double",
                              "defaultValue" : 0.0,
                              "interp" : "eioe"
                            },
                            "geometryCrop1" : {
                              "type" : "double",
                              "defaultValue" : 0.0,
                              "interp" : "eioe"
                            },
                            "geometryCrop2" : {
                              "type" : "double",
                              "defaultValue" : 0.0,
                              "interp" : "eioe"
                            },
                            "geometryCrop3" : {
                              "type" : "double",
                              "defaultValue" : 0.0,
                              "interp" : "eioe"
                            },
                            "cursorScale" : {
                              "type" : "double",
                              "defaultValue" : 0.0,
                              "interp" : "linr"
                            },
                            "cursorOpacity" : {
                              "type" : "double",
                              "defaultValue" : 0.0,
                              "interp" : "linr"
                            },
                            "smoothCursorAcrossEditDuration" : 235200000
                          },
                          "effects" : [

                          ],
                          "start" : 30693600000,
                          "duration" : 11124960000,
                          "mediaStart" : 33774720000,
                          "mediaDuration" : 11124960000,
                          "scalar" : 1,
                          "metadata" : {
                            "clipSpeedAttribute" : false,
                            "effectApplied" : "none"
                          },
                          "animationTracks" : {

                          }
                        },
                        {
                          "id" : 12,
                          "_type" : "ScreenVMFile",
                          "src" : 1,
                          "trackNumber" : 0,
                          "attributes" : {
                            "ident" : "Rec 2-11-2023 7"
                          },
                          "parameters" : {
                            "sourceCrop0" : {
                              "type" : "double",
                              "defaultValue" : 0.0,
                              "interp" : "eioe"
                            },
                            "sourceCrop1" : {
                              "type" : "double",
                              "defaultValue" : 0.0,
                              "interp" : "eioe"
                            },
                            "sourceCrop2" : {
                              "type" : "double",
                              "defaultValue" : 0.0,
                              "interp" : "eioe"
                            },
                            "sourceCrop3" : {
                              "type" : "double",
                              "defaultValue" : 0.0,
                              "interp" : "eioe"
                            },
                            "geometryCrop0" : {
                              "type" : "double",
                              "defaultValue" : 0.0,
                              "interp" : "eioe"
                            },
                            "geometryCrop1" : {
                              "type" : "double",
                              "defaultValue" : 0.0,
                              "interp" : "eioe"
                            },
                            "geometryCrop2" : {
                              "type" : "double",
                              "defaultValue" : 0.0,
                              "interp" : "eioe"
                            },
                            "geometryCrop3" : {
                              "type" : "double",
                              "defaultValue" : 0.0,
                              "interp" : "eioe"
                            },
                            "cursorScale" : {
                              "type" : "double",
                              "defaultValue" : 0.0,
                              "interp" : "linr"
                            },
                            "cursorOpacity" : {
                              "type" : "double",
                              "defaultValue" : 0.0,
                              "interp" : "linr"
                            },
                            "smoothCursorAcrossEditDuration" : 235200000
                          },
                          "effects" : [

                          ],
                          "start" : 41818560000,
                          "duration" : 47040000,
                          "mediaStart" : 46099200000,
                          "mediaDuration" : 47040000,
                          "scalar" : 1,
                          "metadata" : {
                            "clipSpeedAttribute" : false,
                            "effectApplied" : "none"
                          },
                          "animationTracks" : {

                          }
                        },
                        {
                          "id" : 13,
                          "_type" : "ScreenVMFile",
                          "src" : 1,
                          "trackNumber" : 0,
                          "attributes" : {
                            "ident" : "Rec 2-11-2023 7"
                          },
                          "parameters" : {
                            "sourceCrop0" : {
                              "type" : "double",
                              "defaultValue" : 0.0,
                              "interp" : "eioe"
                            },
                            "sourceCrop1" : {
                              "type" : "double",
                              "defaultValue" : 0.0,
                              "interp" : "eioe"
                            },
                            "sourceCrop2" : {
                              "type" : "double",
                              "defaultValue" : 0.0,
                              "interp" : "eioe"
                            },
                            "sourceCrop3" : {
                              "type" : "double",
                              "defaultValue" : 0.0,
                              "interp" : "eioe"
                            },
                            "geometryCrop0" : {
                              "type" : "double",
                              "defaultValue" : 0.0,
                              "interp" : "eioe"
                            },
                            "geometryCrop1" : {
                              "type" : "double",
                              "defaultValue" : 0.0,
                              "interp" : "eioe"
                            },
                            "geometryCrop2" : {
                              "type" : "double",
                              "defaultValue" : 0.0,
                              "interp" : "eioe"
                            },
                            "geometryCrop3" : {
                              "type" : "double",
                              "defaultValue" : 0.0,
                              "interp" : "eioe"
                            },
                            "cursorScale" : {
                              "type" : "double",
                              "defaultValue" : 0.0,
                              "interp" : "linr"
                            },
                            "cursorOpacity" : {
                              "type" : "double",
                              "defaultValue" : 0.0,
                              "interp" : "linr"
                            },
                            "smoothCursorAcrossEditDuration" : 235200000
                          },
                          "effects" : [

                          ],
                          "start" : 41865600000,
                          "duration" : 1317120000,
                          "mediaStart" : 50191680000,
                          "mediaDuration" : 1317120000,
                          "scalar" : 1,
                          "metadata" : {
                            "clipSpeedAttribute" : false,
                            "effectApplied" : "none"
                          },
                          "animationTracks" : {

                          }
                        },
                        {
                          "id" : 14,
                          "_type" : "ScreenVMFile",
                          "src" : 1,
                          "trackNumber" : 0,
                          "attributes" : {
                            "ident" : "Rec 2-11-2023 7"
                          },
                          "parameters" : {
                            "sourceCrop0" : {
                              "type" : "double",
                              "defaultValue" : 0.0,
                              "interp" : "eioe"
                            },
                            "sourceCrop1" : {
                              "type" : "double",
                              "defaultValue" : 0.0,
                              "interp" : "eioe"
                            },
                            "sourceCrop2" : {
                              "type" : "double",
                              "defaultValue" : 0.0,
                              "interp" : "eioe"
                            },
                            "sourceCrop3" : {
                              "type" : "double",
                              "defaultValue" : 0.0,
                              "interp" : "eioe"
                            },
                            "geometryCrop0" : {
                              "type" : "double",
                              "defaultValue" : 0.0,
                              "interp" : "eioe"
                            },
                            "geometryCrop1" : {
                              "type" : "double",
                              "defaultValue" : 0.0,
                              "interp" : "eioe"
                            },
                            "geometryCrop2" : {
                              "type" : "double",
                              "defaultValue" : 0.0,
                              "interp" : "eioe"
                            },
                            "geometryCrop3" : {
                              "type" : "double",
                              "defaultValue" : 0.0,
                              "interp" : "eioe"
                            },
                            "cursorScale" : {
                              "type" : "double",
                              "defaultValue" : 0.0,
                              "interp" : "linr"
                            },
                            "cursorOpacity" : {
                              "type" : "double",
                              "defaultValue" : 0.0,
                              "interp" : "linr"
                            },
                            "smoothCursorAcrossEditDuration" : 235200000
                          },
                          "effects" : [

                          ],
                          "start" : 43182720000,
                          "duration" : 1246560000,
                          "mediaStart" : 52496640000,
                          "mediaDuration" : 1246560000,
                          "scalar" : 1,
                          "metadata" : {
                            "clipSpeedAttribute" : false,
                            "effectApplied" : "none"
                          },
                          "animationTracks" : {

                          }
                        },
                        {
                          "id" : 15,
                          "_type" : "ScreenVMFile",
                          "src" : 1,
                          "trackNumber" : 0,
                          "attributes" : {
                            "ident" : "Rec 2-11-2023 7"
                          },
                          "parameters" : {
                            "sourceCrop0" : {
                              "type" : "double",
                              "defaultValue" : 0.0,
                              "interp" : "eioe"
                            },
                            "sourceCrop1" : {
                              "type" : "double",
                              "defaultValue" : 0.0,
                              "interp" : "eioe"
                            },
                            "sourceCrop2" : {
                              "type" : "double",
                              "defaultValue" : 0.0,
                              "interp" : "eioe"
                            },
                            "sourceCrop3" : {
                              "type" : "double",
                              "defaultValue" : 0.0,
                              "interp" : "eioe"
                            },
                            "geometryCrop0" : {
                              "type" : "double",
                              "defaultValue" : 0.0,
                              "interp" : "eioe"
                            },
                            "geometryCrop1" : {
                              "type" : "double",
                              "defaultValue" : 0.0,
                              "interp" : "eioe"
                            },
                            "geometryCrop2" : {
                              "type" : "double",
                              "defaultValue" : 0.0,
                              "interp" : "eioe"
                            },
                            "geometryCrop3" : {
                              "type" : "double",
                              "defaultValue" : 0.0,
                              "interp" : "eioe"
                            },
                            "cursorScale" : {
                              "type" : "double",
                              "defaultValue" : 0.0,
                              "interp" : "linr"
                            },
                            "cursorOpacity" : {
                              "type" : "double",
                              "defaultValue" : 0.0,
                              "interp" : "linr"
                            },
                            "smoothCursorAcrossEditDuration" : 235200000
                          },
                          "effects" : [

                          ],
                          "start" : 44429280000,
                          "duration" : 5691840000,
                          "mediaStart" : 60752160000,
                          "mediaDuration" : 5691840000,
                          "scalar" : 1,
                          "metadata" : {
                            "clipSpeedAttribute" : false,
                            "effectApplied" : "none"
                          },
                          "animationTracks" : {

                          }
                        },
                        {
                          "id" : 16,
                          "_type" : "ScreenVMFile",
                          "src" : 1,
                          "trackNumber" : 0,
                          "attributes" : {
                            "ident" : "Rec 2-11-2023 7"
                          },
                          "parameters" : {
                            "sourceCrop0" : {
                              "type" : "double",
                              "defaultValue" : 0.0,
                              "interp" : "eioe"
                            },
                            "sourceCrop1" : {
                              "type" : "double",
                              "defaultValue" : 0.0,
                              "interp" : "eioe"
                            },
                            "sourceCrop2" : {
                              "type" : "double",
                              "defaultValue" : 0.0,
                              "interp" : "eioe"
                            },
                            "sourceCrop3" : {
                              "type" : "double",
                              "defaultValue" : 0.0,
                              "interp" : "eioe"
                            },
                            "geometryCrop0" : {
                              "type" : "double",
                              "defaultValue" : 0.0,
                              "interp" : "eioe"
                            },
                            "geometryCrop1" : {
                              "type" : "double",
                              "defaultValue" : 0.0,
                              "interp" : "eioe"
                            },
                            "geometryCrop2" : {
                              "type" : "double",
                              "defaultValue" : 0.0,
                              "interp" : "eioe"
                            },
                            "geometryCrop3" : {
                              "type" : "double",
                              "defaultValue" : 0.0,
                              "interp" : "eioe"
                            },
                            "cursorScale" : {
                              "type" : "double",
                              "defaultValue" : 0.0,
                              "interp" : "linr"
                            },
                            "cursorOpacity" : {
                              "type" : "double",
                              "defaultValue" : 0.0,
                              "interp" : "linr"
                            },
                            "smoothCursorAcrossEditDuration" : 235200000
                          },
                          "effects" : [

                          ],
                          "start" : 50121120000,
                          "duration" : 3669120000,
                          "mediaStart" : 68019840000,
                          "mediaDuration" : 3669120000,
                          "scalar" : 1,
                          "metadata" : {
                            "clipSpeedAttribute" : false,
                            "effectApplied" : "none"
                          },
                          "animationTracks" : {

                          }
                        },
                        {
                          "id" : 17,
                          "_type" : "ScreenVMFile",
                          "src" : 1,
                          "trackNumber" : 0,
                          "attributes" : {
                            "ident" : "Rec 2-11-2023 7"
                          },
                          "parameters" : {
                            "sourceCrop0" : {
                              "type" : "double",
                              "defaultValue" : 0.0,
                              "interp" : "eioe"
                            },
                            "sourceCrop1" : {
                              "type" : "double",
                              "defaultValue" : 0.0,
                              "interp" : "eioe"
                            },
                            "sourceCrop2" : {
                              "type" : "double",
                              "defaultValue" : 0.0,
                              "interp" : "eioe"
                            },
                            "sourceCrop3" : {
                              "type" : "double",
                              "defaultValue" : 0.0,
                              "interp" : "eioe"
                            },
                            "geometryCrop0" : {
                              "type" : "double",
                              "defaultValue" : 0.0,
                              "interp" : "eioe"
                            },
                            "geometryCrop1" : {
                              "type" : "double",
                              "defaultValue" : 0.0,
                              "interp" : "eioe"
                            },
                            "geometryCrop2" : {
                              "type" : "double",
                              "defaultValue" : 0.0,
                              "interp" : "eioe"
                            },
                            "geometryCrop3" : {
                              "type" : "double",
                              "defaultValue" : 0.0,
                              "interp" : "eioe"
                            },
                            "cursorScale" : {
                              "type" : "double",
                              "defaultValue" : 0.0,
                              "interp" : "linr"
                            },
                            "cursorOpacity" : {
                              "type" : "double",
                              "defaultValue" : 0.0,
                              "interp" : "linr"
                            },
                            "smoothCursorAcrossEditDuration" : 235200000
                          },
                          "effects" : [

                          ],
                          "start" : 53790240000,
                          "duration" : 16699200000,
                          "mediaStart" : 72747360000,
                          "mediaDuration" : 16699200000,
                          "scalar" : 1,
                          "metadata" : {
                            "clipSpeedAttribute" : false,
                            "effectApplied" : "none"
                          },
                          "animationTracks" : {

                          }
                        }
                    ],
                    "effects" : [

                    ],
                    "start" : 20674080000,
                    "duration" : 26365920000,
                    "mediaStart" : 41583360000,
                    "mediaDuration" : 26365920000,
                    "scalar" : 1,
                    "metadata" : {
                      "clipSpeedAttribute" : false,
                      "effectApplied" : "none"
                    },
                    "animationTracks" : {

                    }
                  }
                ]
              },
              {
                "trackIndex" : 1,
                "medias" : [
                  {
                    "id" : 18,
                    "_type" : "StitchedMedia",
                    "minMediaStart" : 0,
                    "attributes" : {
                      "ident" : "Rec 2-11-2023 7",
                      "gain" : 1.0,
                      "mixToMono" : false,
                      "loudnessNormalization" : true,
                      "sourceFileOffset" : 0
                    },
                    "parameters" : {
                      "volume" : 1.0,
                      "smoothCursorAcrossEditDuration" : 0
                    },
                    "medias" : [
                        {
                          "id" : 19,
                          "_type" : "AMFile",
                          "src" : 1,
                          "trackNumber" : 1,
                          "attributes" : {
                            "ident" : "Rec 2-11-2023 7",
                            "gain" : 1.0,
                            "mixToMono" : false,
                            "loudnessNormalization" : true,
                            "sourceFileOffset" : 0
                          },
                            "channelNumber" : "0,1",
                          "effects" : [

                          ],
                          "start" : 0,
                          "duration" : 30364320000,
                          "mediaStart" : 0,
                          "mediaDuration" : 30364320000,
                          "scalar" : 1,
                          "metadata" : {
                            "audiateAttribute" : false,
                            "clipSpeedAttribute" : false,
                            "effectApplied" : "none"
                          },
                          "animationTracks" : {

                          }
                        },
                        {
                          "id" : 20,
                          "_type" : "AMFile",
                          "src" : 1,
                          "trackNumber" : 1,
                          "attributes" : {
                            "ident" : "Rec 2-11-2023 7",
                            "gain" : 1.0,
                            "mixToMono" : false,
                            "loudnessNormalization" : true,
                            "sourceFileOffset" : 0
                          },
                            "channelNumber" : "0,1",
                          "effects" : [

                          ],
                          "start" : 30364320000,
                          "duration" : 329280000,
                          "mediaStart" : 31799040000,
                          "mediaDuration" : 329280000,
                          "scalar" : 1,
                          "metadata" : {
                            "audiateAttribute" : false,
                            "clipSpeedAttribute" : false,
                            "effectApplied" : "none"
                          },
                          "animationTracks" : {

                          }
                        },
                        {
                          "id" : 21,
                          "_type" : "AMFile",
                          "src" : 1,
                          "trackNumber" : 1,
                          "attributes" : {
                            "ident" : "Rec 2-11-2023 7",
                            "gain" : 1.0,
                            "mixToMono" : false,
                            "loudnessNormalization" : true,
                            "sourceFileOffset" : 0
                          },
                            "channelNumber" : "0,1",
                          "effects" : [

                          ],
                          "start" : 30693600000,
                          "duration" : 2845920000,
                          "mediaStart" : 33774720000,
                          "mediaDuration" : 2845920000,
                          "scalar" : 1,
                          "metadata" : {
                            "audiateAttribute" : false,
                            "clipSpeedAttribute" : false,
                            "effectApplied" : "none"
                          },
                          "animationTracks" : {

                          }
                        },
                        {
                          "id" : 22,
                          "_type" : "AMFile",
                          "src" : 1,
                          "trackNumber" : 1,
                          "attributes" : {
                            "ident" : "Rec 2-11-2023 7",
                            "gain" : 1.0,
                            "mixToMono" : false,
                            "loudnessNormalization" : true,
                            "sourceFileOffset" : 0
                          },
                            "channelNumber" : "0,1",
                          "effects" : [

                          ],
                          "start" : 33539520000,
                          "duration" : 7220640000,
                          "mediaStart" : 37114560000,
                          "mediaDuration" : 7220640000,
                          "scalar" : 1,
                          "metadata" : {
                            "audiateAttribute" : false,
                            "clipSpeedAttribute" : false,
                            "effectApplied" : "none"
                          },
                          "animationTracks" : {

                          }
                        },
                        {
                          "id" : 23,
                          "_type" : "AMFile",
                          "src" : 1,
                          "trackNumber" : 1,
                          "attributes" : {
                            "ident" : "Rec 2-11-2023 7",
                            "gain" : 1.0,
                            "mixToMono" : false,
                            "loudnessNormalization" : true,
                            "sourceFileOffset" : 0
                          },
                            "channelNumber" : "0,1",
                          "effects" : [

                          ],
                          "start" : 40760160000,
                          "duration" : 1246560000,
                          "mediaStart" : 52496640000,
                          "mediaDuration" : 1246560000,
                          "scalar" : 1,
                          "metadata" : {
                            "audiateAttribute" : false,
                            "clipSpeedAttribute" : false,
                            "effectApplied" : "none"
                          },
                          "animationTracks" : {

                          }
                        },
                        {
                          "id" : 24,
                          "_type" : "AMFile",
                          "src" : 1,
                          "trackNumber" : 1,
                          "attributes" : {
                            "ident" : "Rec 2-11-2023 7",
                            "gain" : 1.0,
                            "mixToMono" : false,
                            "loudnessNormalization" : true,
                            "sourceFileOffset" : 0
                          },
                            "channelNumber" : "0,1",
                          "effects" : [

                          ],
                          "start" : 42006720000,
                          "duration" : 5691840000,
                          "mediaStart" : 60752160000,
                          "mediaDuration" : 5691840000,
                          "scalar" : 1,
                          "metadata" : {
                            "audiateAttribute" : false,
                            "clipSpeedAttribute" : false,
                            "effectApplied" : "none"
                          },
                          "animationTracks" : {

                          }
                        },
                        {
                          "id" : 25,
                          "_type" : "AMFile",
                          "src" : 1,
                          "trackNumber" : 1,
                          "attributes" : {
                            "ident" : "Rec 2-11-2023 7",
                            "gain" : 1.0,
                            "mixToMono" : false,
                            "loudnessNormalization" : true,
                            "sourceFileOffset" : 0
                          },
                            "channelNumber" : "0,1",
                          "effects" : [

                          ],
                          "start" : 47698560000,
                          "duration" : 3669120000,
                          "mediaStart" : 68019840000,
                          "mediaDuration" : 3669120000,
                          "scalar" : 1,
                          "metadata" : {
                            "audiateAttribute" : false,
                            "clipSpeedAttribute" : false,
                            "effectApplied" : "none"
                          },
                          "animationTracks" : {

                          }
                        },
                        {
                          "id" : 26,
                          "_type" : "AMFile",
                          "src" : 1,
                          "trackNumber" : 1,
                          "attributes" : {
                            "ident" : "Rec 2-11-2023 7",
                            "gain" : 1.0,
                            "mixToMono" : false,
                            "loudnessNormalization" : true,
                            "sourceFileOffset" : 0
                          },
                            "channelNumber" : "0,1",
                          "effects" : [

                          ],
                          "start" : 51367680000,
                          "duration" : 16722720000,
                          "mediaStart" : 72747360000,
                          "mediaDuration" : 16722720000,
                          "scalar" : 1,
                          "metadata" : {
                            "audiateAttribute" : false,
                            "clipSpeedAttribute" : false,
                            "effectApplied" : "none"
                          },
                          "animationTracks" : {

                          }
                        }
                    ],
                    "effects" : [

                    ],
                    "start" : 1411200000,
                    "duration" : 44876160000,
                    "mediaStart" : 19897920000,
                    "mediaDuration" : 44876160000,
                    "scalar" : 1,
                    "metadata" : {
                      "audiateAttribute" : false,
                      "clipSpeedAttribute" : false,
                      "effectApplied" : "none"
                    },
                    "animationTracks" : {

                    }
                  }
                ]
              }            ]
          }
        }
      ]
    },
    "trackAttributes" : [
      {
        "ident" : "",
        "audioMuted" : false,
        "videoHidden" : false,
        "magnetic" : false,
        "matte" : 0,
        "solo" : false,
        "metadata" : {
          "IsLocked" : "False",
          "trackHeight" : "54"
        }
      },
      {
        "ident" : "",
        "audioMuted" : false,
        "videoHidden" : false,
        "magnetic" : false,
        "matte" : 0,
        "solo" : false,
        "metadata" : {
          "IsLocked" : "False",
          "trackHeight" : "54"
        }
      }
    ],
    "captionAttributes" : {
      "enabled" : true,
      "fontName" : "Arial",
      "fontSize" : 32,
      "backgroundColor" : [ 0, 0, 0, 204],
      "foregroundColor" : [ 255, 255, 255, 255],
      "lang" : "en",
      "alignment" : 0,
      "defaultFontSize" : true,
      "opacity" : 0.5,
      "backgroundEnabled" : true,
      "backgroundOnlyAroundText" : true
    },
    "gain" : 1.0,
    "legacyAttenuateAudioMix" : false,
    "backgroundColor" : [ 0, 0, 0, 255],
    "metadata" : {
      "RecordingHeight" : "900",
      "RecordingWidth" : "1600"
    }
  },
  "metadata" : {
    "ProjectThumbnail" : "iVBORw0KGgoAAAANSUhEUgAAAoAAAAFoCAYAAADHMkpRAAAAAXNSR0IArs4c6QAAAERlWElmTU0AKgAAAAgAAYdpAAQAAAABAAAAGgAAAAAAA6ABAAMAAAABAAEAAKACAAQAAAABAAACgKADAAQAAAABAAABaAAAAACeojBPAAASf0lEQVR4Ae3WsREAIAwDscD+OwMFW7y4YwDLKbxm5rzvESBAgAABAgQIRAR2JKeYBAgQIECAAAECX8AAdAoECBAgQIAAgZiAARgrXFwCBAgQIECAgAHoBggQIECAAAECMQEDMFa4uAQIECBAgAABA9ANECBAgAABAgRiAgZgrHBxCRAgQIAAAQIGoBsgQIAAAQIECMQEDMBY4eISIECAAAECBAxAN0CAAAECBAgQiAkYgLHCxSVAgAABAgQIGIBugAABAgQIECAQEzAAY4WLS4AAAQIECBAwAN0AAQIECBAgQCAmYADGCheXAAECBAgQIGAAugECBAgQIECAQEzAAIwVLi4BAgQIECBAwAB0AwQIECBAgACBmIABGCtcXAIECBAgQICAAegGCBAgQIAAAQIxAQMwVri4BAgQIECAAAED0A0QIECAAAECBGICBmCscHEJECBAgAABAgagGyBAgAABAgQIxAQMwFjh4hIgQIAAAQIEDEA3QIAAAQIECBCICRiAscLFJUCAAAECBAgYgG6AAAECBAgQIBATMABjhYtLgAABAgQIEDAA3QABAgQIECBAICZgAMYKF5cAAQIECBAgYAC6AQIECBAgQIBATMAAjBUuLgECBAgQIEDAAHQDBAgQIECAAIGYgAEYK1xcAgQIECBAgIAB6AYIECBAgAABAjEBAzBWuLgECBAgQIAAAQPQDRAgQIAAAQIEYgIGYKxwcQkQIECAAAECBqAbIECAAAECBAjEBAzAWOHiEiBAgAABAgQMQDdAgAABAgQIEIgJGICxwsUlQIAAAQIECBiAboAAAQIECBAgEBMwAGOFi0uAAAECBAgQMADdAAECBAgQIEAgJmAAxgoXlwABAgQIECBgALoBAgQIECBAgEBMwACMFS4uAQIECBAgQMAAdAMECBAgQIAAgZiAARgrXFwCBAgQIECAgAHoBggQIECAAAECMQEDMFa4uAQIECBAgAABA9ANECBAgAABAgRiAgZgrHBxCRAgQIAAAQIGoBsgQIAAAQIECMQEDMBY4eISIECAAAECBAxAN0CAAAECBAgQiAkYgLHCxSVAgAABAgQIGIBugAABAgQIECAQEzAAY4WLS4AAAQIECBAwAN0AAQIECBAgQCAmYADGCheXAAECBAgQIGAAugECBAgQIECAQEzAAIwVLi4BAgQIECBAwAB0AwQIECBAgACBmIABGCtcXAIECBAgQICAAegGCBAgQIAAAQIxAQMwVri4BAgQIECAAAED0A0QIECAAAECBGICBmCscHEJECBAgAABAgagGyBAgAABAgQIxAQMwFjh4hIgQIAAAQIEDEA3QIAAAQIECBCICRiAscLFJUCAAAECBAgYgG6AAAECBAgQIBATMABjhYtLgAABAgQIEDAA3QABAgQIECBAICZgAMYKF5cAAQIECBAgYAC6AQIECBAgQIBATMAAjBUuLgECBAgQIEDAAHQDBAgQIECAAIGYgAEYK1xcAgQIECBAgIAB6AYIECBAgAABAjEBAzBWuLgECBAgQIAAAQPQDRAgQIAAAQIEYgIGYKxwcQkQIECAAAECBqAbIECAAAECBAjEBAzAWOHiEiBAgAABAgQMQDdAgAABAgQIEIgJGICxwsUlQIAAAQIECBiAboAAAQIECBAgEBMwAGOFi0uAAAECBAgQMADdAAECBAgQIEAgJmAAxgoXlwABAgQIECBgALoBAgQIECBAgEBMwACMFS4uAQIECBAgQMAAdAMECBAgQIAAgZiAARgrXFwCBAgQIECAgAHoBggQIECAAAECMQEDMFa4uAQIECBAgAABA9ANECBAgAABAgRiAgZgrHBxCRAgQIAAAQIGoBsgQIAAAQIECMQEDMBY4eISIECAAAECBAxAN0CAAAECBAgQiAkYgLHCxSVAgAABAgQIGIBugAABAgQIECAQEzAAY4WLS4AAAQIECBAwAN0AAQIECBAgQCAmYADGCheXAAECBAgQIGAAugECBAgQIECAQEzAAIwVLi4BAgQIECBAwAB0AwQIECBAgACBmIABGCtcXAIECBAgQICAAegGCBAgQIAAAQIxAQMwVri4BAgQIECAAAED0A0QIECAAAECBGICBmCscHEJECBAgAABAgagGyBAgAABAgQIxAQMwFjh4hIgQIAAAQIEDEA3QIAAAQIECBCICRiAscLFJUCAAAECBAgYgG6AAAECBAgQIBATMABjhYtLgAABAgQIEDAA3QABAgQIECBAICZgAMYKF5cAAQIECBAgYAC6AQIECBAgQIBATMAAjBUuLgECBAgQIEDAAHQDBAgQIECAAIGYgAEYK1xcAgQIECBAgIAB6AYIECBAgAABAjEBAzBWuLgECBAgQIAAAQPQDRAgQIAAAQIEYgIGYKxwcQkQIECAAAECBqAbIECAAAECBAjEBAzAWOHiEiBAgAABAgQMQDdAgAABAgQIEIgJGICxwsUlQIAAAQIECBiAboAAAQIECBAgEBMwAGOFi0uAAAECBAgQMADdAAECBAgQIEAgJmAAxgoXlwABAgQIECBgALoBAgQIECBAgEBMwACMFS4uAQIECBAgQMAAdAMECBAgQIAAgZiAARgrXFwCBAgQIECAgAHoBggQIECAAAECMQEDMFa4uAQIECBAgAABA9ANECBAgAABAgRiAgZgrHBxCRAgQIAAAQIGoBsgQIAAAQIECMQEDMBY4eISIECAAAECBAxAN0CAAAECBAgQiAkYgLHCxSVAgAABAgQIGIBugAABAgQIECAQEzAAY4WLS4AAAQIECBAwAN0AAQIECBAgQCAmYADGCheXAAECBAgQIGAAugECBAgQIECAQEzAAIwVLi4BAgQIECBAwAB0AwQIECBAgACBmIABGCtcXAIECBAgQICAAegGCBAgQIAAAQIxAQMwVri4BAgQIECAAAED0A0QIECAAAECBGICBmCscHEJECBAgAABAgagGyBAgAABAgQIxAQMwFjh4hIgQIAAAQIEDEA3QIAAAQIECBCICRiAscLFJUCAAAECBAgYgG6AAAECBAgQIBATMABjhYtLgAABAgQIEDAA3QABAgQIECBAICZgAMYKF5cAAQIECBAgYAC6AQIECBAgQIBATMAAjBUuLgECBAgQIEDAAHQDBAgQIECAAIGYgAEYK1xcAgQIECBAgIAB6AYIECBAgAABAjEBAzBWuLgECBAgQIAAAQPQDRAgQIAAAQIEYgIGYKxwcQkQIECAAAECBqAbIECAAAECBAjEBAzAWOHiEiBAgAABAgQMQDdAgAABAgQIEIgJGICxwsUlQIAAAQIECBiAboAAAQIECBAgEBMwAGOFi0uAAAECBAgQMADdAAECBAgQIEAgJmAAxgoXlwABAgQIECBgALoBAgQIECBAgEBMwACMFS4uAQIECBAgQMAAdAMECBAgQIAAgZiAARgrXFwCBAgQIECAgAHoBggQIECAAAECMQEDMFa4uAQIECBAgAABA9ANECBAgAABAgRiAgZgrHBxCRAgQIAAAQIGoBsgQIAAAQIECMQEDMBY4eISIECAAAECBAxAN0CAAAECBAgQiAkYgLHCxSVAgAABAgQIGIBugAABAgQIECAQEzAAY4WLS4AAAQIECBAwAN0AAQIECBAgQCAmYADGCheXAAECBAgQIGAAugECBAgQIECAQEzAAIwVLi4BAgQIECBAwAB0AwQIECBAgACBmIABGCtcXAIECBAgQICAAegGCBAgQIAAAQIxAQMwVri4BAgQIECAAAED0A0QIECAAAECBGICBmCscHEJECBAgAABAgagGyBAgAABAgQIxAQMwFjh4hIgQIAAAQIEDEA3QIAAAQIECBCICRiAscLFJUCAAAECBAgYgG6AAAECBAgQIBATMABjhYtLgAABAgQIEDAA3QABAgQIECBAICZgAMYKF5cAAQIECBAgYAC6AQIECBAgQIBATMAAjBUuLgECBAgQIEDAAHQDBAgQIECAAIGYgAEYK1xcAgQIECBAgIAB6AYIECBAgAABAjEBAzBWuLgECBAgQIAAAQPQDRAgQIAAAQIEYgIGYKxwcQkQIECAAAECBqAbIECAAAECBAjEBAzAWOHiEiBAgAABAgQMQDdAgAABAgQIEIgJGICxwsUlQIAAAQIECBiAboAAAQIECBAgEBMwAGOFi0uAAAECBAgQMADdAAECBAgQIEAgJmAAxgoXlwABAgQIECBgALoBAgQIECBAgEBMwACMFS4uAQIECBAgQMAAdAMECBAgQIAAgZiAARgrXFwCBAgQIECAgAHoBggQIECAAAECMQEDMFa4uAQIECBAgAABA9ANECBAgAABAgRiAgZgrHBxCRAgQIAAAQIGoBsgQIAAAQIECMQEDMBY4eISIECAAAECBAxAN0CAAAECBAgQiAkYgLHCxSVAgAABAgQIGIBugAABAgQIECAQEzAAY4WLS4AAAQIECBAwAN0AAQIECBAgQCAmYADGCheXAAECBAgQIGAAugECBAgQIECAQEzAAIwVLi4BAgQIECBAwAB0AwQIECBAgACBmIABGCtcXAIECBAgQICAAegGCBAgQIAAAQIxAQMwVri4BAgQIECAAAED0A0QIECAAAECBGICBmCscHEJECBAgAABAgagGyBAgAABAgQIxAQMwFjh4hIgQIAAAQIEDEA3QIAAAQIECBCICRiAscLFJUCAAAECBAgYgG6AAAECBAgQIBATMABjhYtLgAABAgQIEDAA3QABAgQIECBAICZgAMYKF5cAAQIECBAgYAC6AQIECBAgQIBATMAAjBUuLgECBAgQIEDAAHQDBAgQIECAAIGYgAEYK1xcAgQIECBAgIAB6AYIECBAgAABAjEBAzBWuLgECBAgQIAAAQPQDRAgQIAAAQIEYgIGYKxwcQkQIECAAAECBqAbIECAAAECBAjEBAzAWOHiEiBAgAABAgQMQDdAgAABAgQIEIgJGICxwsUlQIAAAQIECBiAboAAAQIECBAgEBMwAGOFi0uAAAECBAgQMADdAAECBAgQIEAgJmAAxgoXlwABAgQIECBgALoBAgQIECBAgEBMwACMFS4uAQIECBAgQMAAdAMECBAgQIAAgZiAARgrXFwCBAgQIECAgAHoBggQIECAAAECMQEDMFa4uAQIECBAgAABA9ANECBAgAABAgRiAgZgrHBxCRAgQIAAAQIGoBsgQIAAAQIECMQEDMBY4eISIECAAAECBAxAN0CAAAECBAgQiAkYgLHCxSVAgAABAgQIGIBugAABAgQIECAQEzAAY4WLS4AAAQIECBAwAN0AAQIECBAgQCAmYADGCheXAAECBAgQIGAAugECBAgQIECAQEzAAIwVLi4BAgQIECBAwAB0AwQIECBAgACBmIABGCtcXAIECBAgQICAAegGCBAgQIAAAQIxAQMwVri4BAgQIECAAAED0A0QIECAAAECBGICBmCscHEJECBAgAABAgagGyBAgAABAgQIxAQMwFjh4hIgQIAAAQIEDEA3QIAAAQIECBCICRiAscLFJUCAAAECBAgYgG6AAAECBAgQIBATMABjhYtLgAABAgQIEDAA3QABAgQIECBAICZgAMYKF5cAAQIECBAgYAC6AQIECBAgQIBATMAAjBUuLgECBAgQIEDAAHQDBAgQIECAAIGYgAEYK1xcAgQIECBAgIAB6AYIECBAgAABAjEBAzBWuLgECBAgQIAAAQPQDRAgQIAAAQIEYgIGYKxwcQkQIECAAAECBqAbIECAAAECBAjEBAzAWOHiEiBAgAABAgQMQDdAgAABAgQIEIgJGICxwsUlQIAAAQIECBiAboAAAQIECBAgEBMwAGOFi0uAAAECBAgQMADdAAECBAgQIEAgJmAAxgoXlwABAgQIECBgALoBAgQIECBAgEBMwACMFS4uAQIECBAgQMAAdAMECBAgQIAAgZiAARgrXFwCBAgQIECAgAHoBggQIECAAAECMQEDMFa4uAQIECBAgAABA9ANECBAgAABAgRiAgZgrHBxCRAgQIAAAQIGoBsgQIAAAQIECMQEDMBY4eISIECAAAECBAxAN0CAAAECBAgQiAkYgLHCxSVAgAABAgQIGIBugAABAgQIECAQEzAAY4WLS4AAAQIECBAwAN0AAQIECBAgQCAmYADGCheXAAECBAgQIGAAugECBAgQIECAQEzAAIwVLi4BAgQIECBAwAB0AwQIECBAgACBmIABGCtcXAIECBAgQICAAegGCBAgQIAAAQIxAQMwVri4BAgQIECAAAED0A0QIECAAAECBGICBmCscHEJECBAgAABAhfaGQPPRmdxkAAAAABJRU5ErkJggg==",
    "RulerGuidesX" : [],
    "RulerGuidesY" : [],
    "RulerShowing" : false,
    "activeThemeId" : "e59eeb42-ccf0-4a36-bdf9-e630fdab686d",
    "audiateSessionId" : "",
    "firstMedia" : true,
    "hasNotifiedAboutHFRMedia" : false,
    "projectDuration" : "01:06"
  }
}
