<?xml version="1.0" encoding="utf-8"?>
<svg version="1.1" baseProfile="tiny" id="Layer_1" xmlns="http://www.w3.org/2000/svg" xmlns:xlink="http://www.w3.org/1999/xlink"
	 x="0px" y="0px" viewBox="0 0 65 8.4" overflow="visible" xml:space="preserve">
<g>
	<path d="M0,0h3.5c1.2,1.1,1.7,2.4,1.7,4.2c0,1.7-0.5,3.1-1.6,4.2H0V0z M2.7,7c0.5-0.6,0.7-1.8,0.7-2.8c0-1-0.2-2.1-0.7-2.7H1.6V7
		H2.7z"/>
	<path d="M10.5,8.4h-3C6.2,7.6,5.9,6.2,5.9,5.3c0-1.1,0.3-2.2,1.5-3h1.9C10.5,3.1,10.7,4,10.7,5c0,0.3-0.1,0.8-0.1,1h-3
		c0,0.3,0.3,0.9,0.6,1.1h2.3V8.4z M7.9,3.5C7.7,3.8,7.5,4.4,7.5,4.9h1.7c0-0.5-0.1-1.1-0.4-1.3H7.9z"/>
	<path d="M15,2.3l0.3,0.4c0.3-0.3,0.5-0.4,1.2-0.4h1.3c0.7,0.9,0.9,1.8,0.9,3v3.1h-1.6V5.2c0-0.8-0.1-1.3-0.3-1.6h-1.2
		c0.2,0.4,0.3,0.9,0.3,1.4v3.5h-1.6V5.2c0-0.8-0.1-1.3-0.3-1.6h-0.9v4.9h-1.6V2.3h1.2L13,2.7c0.3-0.3,0.5-0.4,1.2-0.4H15z"/>
	<path d="M20.8,8.4c-0.9-0.8-1.2-2-1.2-3c0-1.3,0.3-2.2,1.1-3.1h2.8c0.9,1,1.1,1.8,1.1,3.1c0,1-0.3,2.2-1.2,3H20.8z M22.5,7.1
		C22.7,6.7,23,6,23,5.3c0-0.7-0.2-1.4-0.4-1.8h-0.9c-0.3,0.4-0.4,1-0.4,1.8c0,0.7,0.2,1.4,0.4,1.8H22.5z"/>
	<path d="M29.4,2.3c0.7,0.9,0.9,1.8,0.9,3v3.1h-1.6V5.2c0-0.8-0.1-1.3-0.3-1.6H27v4.9h-1.6V2.3h1.2l0.2,0.4c0.3-0.3,0.5-0.4,1.2-0.4
		H29.4z"/>
	<path d="M34.5,2.3v1.3h-1.9l1.1,1.7c0.5,0.7,0.9,1.2,0.9,1.9c0,0.6-0.3,1.1-0.6,1.3H31V7.1h2.2l-1.3-1.9C31.4,4.4,31,4,31,3.5
		c0-0.5,0.2-1,0.9-1.2H34.5z"/>
	<path d="M35.8,3.5H35V2.3h0.8V0.6h1.6v1.7h1v1.3h-1v2.6c0,0.5,0,0.8,0.3,1h0.7v1.3h-1.7c-0.9-0.8-0.9-1.7-0.9-2.7V3.5z"/>
	<path d="M39.2,2.3h1.1l0.3,0.6c0.2-0.3,0.6-0.6,1.2-0.6h0.5v1.6h-1.5v4.5h-1.6V2.3z"/>
	<path d="M46.1,2.3c1,0.6,1.2,1.4,1.2,2.5v1.8c0,0.6,0,1.2,0,1.8h-1.4L45.7,8c-0.3,0.3-0.6,0.4-1.3,0.4h-0.8c-0.7-0.5-1-1.2-1-1.9
		c0-0.7,0.2-1.4,1-2h1.1c0.3,0,0.6,0.1,0.9,0.3V4.1c0-0.3-0.2-0.5-0.4-0.6h-2.2V2.3H46.1z M44.4,5.6c-0.1,0.2-0.3,0.4-0.3,0.7
		c0,0.3,0.1,0.6,0.3,0.8h1.3V5.6H44.4z"/>
	<path d="M48.5,3.5h-0.8V2.3h0.8V0.6h1.6v1.7h1v1.3h-1v2.6c0,0.5,0,0.8,0.3,1H51v1.3h-1.7c-0.9-0.8-0.9-1.7-0.9-2.7V3.5z"/>
	<path d="M53.4,0v1.6h-1.6V0H53.4z M51.9,2.3h1.6v6.1h-1.6V2.3z"/>
	<path d="M55.5,8.4c-0.9-0.8-1.2-2-1.2-3c0-1.3,0.3-2.2,1.1-3.1h2.8c0.9,1,1.1,1.8,1.1,3.1c0,1-0.3,2.2-1.2,3H55.5z M57.3,7.1
		c0.2-0.4,0.4-1.2,0.4-1.8c0-0.7-0.2-1.4-0.4-1.8h-0.9c-0.3,0.4-0.4,1-0.4,1.8c0,0.7,0.2,1.4,0.4,1.8H57.3z"/>
	<path d="M64.1,2.3C64.8,3.2,65,4,65,5.3v3.1h-1.6V5.2c0-0.8-0.1-1.3-0.3-1.6h-1.3v4.9h-1.6V2.3h1.2l0.2,0.4
		c0.3-0.3,0.5-0.4,1.2-0.4H64.1z"/>
</g>
</svg>
